<svg version="1.2" xmlns="http://www.w3.org/2000/svg" viewBox="0 0 25 55" width="25" height="55">
	<title>Layer</title>
	<style>
		.s0 { fill: #0096fc } 
	</style>
	<path id="Layer" fill-rule="evenodd" class="s0" d="m15.6 0l1.5 0.1 1 1.1 0.9 0.2-0.2 2.3-1.8 1.5-7.3 5.2-0.8 2.4 0.7 2.3 3.4 3.6 0.9 1.8 1.5-0.5 2 1.3 0.3 1.6 0.9 0.2 4 5.2 1.1 1.2q-0.1 1.6 0 2.2l0.3 0.7-0.6 1.3-0.9 3.2q-2.1 2.7-2.5 4l-1.1 0.4-0.1 0.6-4.7 5.3q-1.9 2.6-3 3.1l-4.9 2.4q-0.6 1.1-1.6 1.9l-1.1-1.5-0.2-1-0.7-0.6 1.5-1.6q0.3-1 0.5-1.2l0.4-0.5q0.1-0.2 1.9-1 0.8-1.1 1.5-1.3l0.6-0.1q1.1-1.2 1.5-1.8l0.6-0.1 0.1-0.6 0.6-0.2 0.1-1.4 0.4-0.1 0.5-1.4 1.2-0.7 0.2-1.1 0.3-0.4 0.4-2.9-0.9-1.3-2.7-4.9-4.7-2.2q-1.3-1.3-2.2-2.1l-0.6-1.3q-0.3-0.7-1.3-1.7l-0.5-0.1-0.9-1.6-0.1-0.6q-0.6-1.6-1-2l0.6-3.1 0.5 0.1-0.2-1.2 0.8-1-0.1-0.5q1.4-1.4 1.9-2.3l0.8-0.1 0.2 0.6 0.5-1.7v0.3q0-0.3 1.5-1.2 0-0.7 0.9-1 1-2 1-2.3l0.8-0.3h0.7l0.2-0.4 1.5-0.2-0.1-0.3 2.4-1.1q0.4-0.2 1.6-1.2z"/>
</svg>