<svg width="198" height="63" viewBox="0 0 198 63" fill="none" xmlns="http://www.w3.org/2000/svg">
<path fill-rule="evenodd" clip-rule="evenodd" d="M62.2322 15.1941C62.7381 15.1941 63.1683 15.3712 63.5225 15.7248C63.8767 16.0789 64.0538 16.509 64.0538 17.0151C64.0538 17.4958 63.8893 17.907 63.5604 18.2485C63.2315 18.59 62.8393 18.7861 62.3839 18.8367H54.7578C53.9988 18.8874 53.3726 19.0701 52.8793 19.3863C52.3859 19.7026 52.0001 20.0884 51.7218 20.5438C51.4435 20.9993 51.2543 21.4926 51.1531 22.0239C51.0519 22.5547 51.0014 23.0353 51.0014 23.4655V29.9159C51.0014 30.4218 50.8243 30.8519 50.47 31.2062C50.1158 31.5604 49.6857 31.7374 49.1797 31.7374C48.6737 31.7374 48.2436 31.5604 47.8901 31.2062C47.5359 30.8519 47.3587 30.4218 47.3587 29.9159V23.4655C47.3587 22.6811 47.4599 21.891 47.6623 21.0941C47.8647 20.2972 48.1677 19.5445 48.5725 18.8367H36.1273C35.6213 18.8367 35.1911 18.6596 34.8369 18.3054C34.4828 17.9512 34.3057 17.521 34.3057 17.0151C34.3057 16.509 34.4828 16.0789 34.8369 15.7248C35.1911 15.3712 35.6213 15.1941 36.1273 15.1941H62.2322ZM90.0069 28.0947C90.8671 28.0947 91.5749 27.9367 92.1315 27.6204C92.6881 27.3042 93.1245 26.9183 93.4408 26.4629C93.757 26.0075 93.9721 25.5084 94.086 24.9645C94.1998 24.4205 94.2567 23.9209 94.2567 23.4655C94.2567 23.0101 94.1998 22.5103 94.086 21.967C93.9721 21.423 93.757 20.9233 93.4408 20.4679C93.1245 20.0125 92.6881 19.6267 92.1315 19.3104C91.5749 18.9942 90.8671 18.8367 90.0069 18.8367H74.6774C73.7918 18.8367 73.0778 18.9942 72.5339 19.3104C71.9899 19.6267 71.5597 20.0125 71.2435 20.4679C70.9272 20.9233 70.7123 21.423 70.5984 21.967C70.4845 22.5103 70.4276 23.0101 70.4276 23.4655C70.4276 23.9209 70.4845 24.4205 70.5984 24.9645C70.7123 25.5084 70.9272 26.0075 71.2435 26.4629C71.5597 26.9183 71.9899 27.3042 72.5339 27.6204C73.0778 27.9367 73.7918 28.0947 74.6774 28.0947H90.0069ZM97.7848 23.4655C97.7848 24.4268 97.6274 25.3946 97.3111 26.3681C96.9949 27.3421 96.5331 28.2277 95.9259 29.0246C95.3187 29.8209 94.585 30.4725 93.7254 30.9784C92.8652 31.4845 91.8912 31.7374 90.8039 31.7374H73.5016C72.4642 31.6868 71.5408 31.4022 70.7312 30.8836C69.9222 30.3649 69.2328 29.7134 68.6635 28.9297C68.0942 28.1454 67.6579 27.2725 67.3543 26.3111C67.0506 25.3503 66.8989 24.4016 66.8989 23.4655C66.8989 22.504 67.057 21.5369 67.3732 20.5628C67.6895 19.5887 68.1512 18.7039 68.7584 17.9069C69.3656 17.1099 70.0993 16.4585 70.9588 15.9524C71.8191 15.4471 72.7932 15.1941 73.8805 15.1941H91.1828C92.22 15.2446 93.1435 15.5293 93.9532 16.0474C94.7622 16.566 95.4516 17.2175 96.0208 18.0018C96.59 18.7861 97.0265 19.6583 97.3301 20.6198C97.6337 21.5811 97.7848 22.5293 97.7848 23.4655ZM128.557 15.1941C129.063 15.1941 129.493 15.3712 129.847 15.7248C130.202 16.0789 130.379 16.509 130.379 17.0151C130.379 17.4958 130.214 17.907 129.885 18.2485C129.556 18.59 129.164 18.7861 128.709 18.8367H121.083C120.324 18.8874 119.698 19.0701 119.204 19.3863C118.711 19.7026 118.325 20.0884 118.047 20.5438C117.768 20.9993 117.579 21.4926 117.478 22.0239C117.377 22.5547 117.326 23.0353 117.326 23.4655V29.9159C117.326 30.4218 117.149 30.8519 116.795 31.2062C116.441 31.5604 116.011 31.7374 115.505 31.7374C114.999 31.7374 114.568 31.5604 114.215 31.2062C113.861 30.8519 113.684 30.4218 113.684 29.9159V23.4655C113.684 22.6811 113.785 21.891 113.987 21.0941C114.19 20.2972 114.493 19.5445 114.897 18.8367H102.452C101.946 18.8367 101.516 18.6596 101.162 18.3054C100.808 17.9512 100.63 17.521 100.63 17.0151C100.63 16.509 100.808 16.0789 101.162 15.7248C101.516 15.3712 101.946 15.1941 102.452 15.1941H128.557ZM140.661 27.6393C140.661 26.9815 140.888 26.4249 141.344 25.9695C141.799 25.5148 142.356 25.2871 143.014 25.2871C143.671 25.2871 144.227 25.5148 144.683 25.9695C145.138 26.4249 145.366 26.9815 145.366 27.6393C145.366 28.2972 145.138 28.8538 144.683 29.3092C144.227 29.764 143.671 29.9917 143.014 29.9917C142.356 29.9917 141.799 29.764 141.344 29.3092C140.888 28.8538 140.661 28.2972 140.661 27.6393ZM132.655 31.0543C132.276 31.5097 131.808 31.7374 131.251 31.7374C130.745 31.7374 130.315 31.5604 129.961 31.2062C129.606 30.8519 129.429 30.4218 129.429 29.9159C129.429 29.4603 129.556 29.0942 129.809 28.8159L139.029 16.4078C139.46 15.826 140.028 15.3521 140.737 14.9853C141.445 14.6184 142.204 14.4351 143.014 14.4351C143.772 14.4351 144.493 14.5995 145.176 14.9285C145.859 15.2573 146.416 15.7121 146.845 16.2941L156.066 28.6261C156.218 28.8032 156.344 28.9993 156.446 29.2143C156.547 29.4287 156.597 29.6628 156.597 29.9159C156.597 30.4218 156.42 30.8519 156.066 31.2062C155.712 31.5604 155.282 31.7374 154.776 31.7374C154.169 31.7374 153.688 31.4971 153.334 31.0164L144.493 19.2156C144.316 19.0132 144.095 18.7924 143.829 18.5521C143.563 18.3117 143.291 18.1915 143.014 18.1915C142.735 18.1915 142.463 18.3117 142.198 18.5521C141.932 18.7924 141.723 19.0132 141.572 19.2156L132.655 31.0543ZM165.59 31.7374C164.881 31.7374 164.211 31.6046 163.579 31.339C162.947 31.0733 162.396 30.7128 161.928 30.2574C161.46 29.802 161.087 29.2713 160.809 28.664C160.53 28.0569 160.391 27.399 160.391 26.6907V17.0151C160.391 16.509 160.568 16.0789 160.923 15.7248C161.277 15.3712 161.707 15.1941 162.213 15.1941C162.694 15.1941 163.117 15.3712 163.484 15.7248C163.85 16.0789 164.034 16.509 164.034 17.0151V26.6907C164.034 27.0702 164.179 27.399 164.47 27.6773C164.761 27.9556 165.096 28.0947 165.476 28.0947H188.242C188.748 28.0947 189.178 28.272 189.532 28.6261C189.886 28.9803 190.064 29.4098 190.064 29.9159C190.064 30.4218 189.886 30.8519 189.532 31.2062C189.178 31.5604 188.748 31.7374 188.242 31.7374H165.59Z" fill="white"/>
<path d="M40.6895 38.9014C40.6334 38.4281 40.4061 38.0607 40.0076 37.7991C39.609 37.5376 39.1202 37.4068 38.5411 37.4068C38.1176 37.4068 37.7471 37.4753 37.4295 37.6123C37.115 37.7493 36.869 37.9377 36.6916 38.1775C36.5172 38.4172 36.43 38.6896 36.43 38.9948C36.43 39.2501 36.4907 39.4696 36.6122 39.6533C36.7367 39.8339 36.8955 39.9849 37.0886 40.1064C37.2816 40.2247 37.484 40.3228 37.6957 40.4006C37.9074 40.4753 38.102 40.536 38.2795 40.5827L39.251 40.8443C39.5001 40.9097 39.7772 41 40.0823 41.1152C40.3906 41.2304 40.6848 41.3876 40.965 41.5869C41.2484 41.783 41.4819 42.0353 41.6656 42.3435C41.8493 42.6518 41.9412 43.0301 41.9412 43.4784C41.9412 43.9953 41.8057 44.4623 41.5348 44.8796C41.2671 45.2968 40.8747 45.6284 40.3579 45.8744C39.8441 46.1203 39.2198 46.2433 38.485 46.2433C37.8 46.2433 37.2069 46.1328 36.7056 45.9117C36.2074 45.6907 35.8151 45.3824 35.5286 44.987C35.2453 44.5915 35.0849 44.1323 35.0476 43.6092H36.2432C36.2743 43.9704 36.3958 44.2693 36.6075 44.5059C36.8223 44.7394 37.0932 44.9138 37.4202 45.029C37.7502 45.1411 38.1052 45.1971 38.485 45.1971C38.9272 45.1971 39.3241 45.1255 39.676 44.9823C40.0278 44.836 40.3065 44.6336 40.512 44.3751C40.7175 44.1136 40.8202 43.8085 40.8202 43.4597C40.8202 43.1421 40.7315 42.8837 40.554 42.6844C40.3766 42.4852 40.143 42.3233 39.8535 42.1987C39.5639 42.0742 39.251 41.9652 38.9147 41.8718L37.7377 41.5355C36.9905 41.3207 36.3989 41.014 35.963 40.6154C35.5271 40.2169 35.3091 39.6954 35.3091 39.0508C35.3091 38.5153 35.4539 38.0482 35.7435 37.6497C36.0361 37.248 36.4285 36.9367 36.9204 36.7156C37.4155 36.4914 37.9682 36.3793 38.5784 36.3793C39.1949 36.3793 39.7429 36.4899 40.2224 36.7109C40.7019 36.9289 41.0818 37.2278 41.362 37.6077C41.6454 37.9875 41.7948 38.4188 41.8104 38.9014H40.6895ZM51.9161 41.2926C51.9161 42.3015 51.7339 43.1733 51.3696 43.9081C51.0053 44.6429 50.5056 45.2096 49.8704 45.6081C49.2352 46.0067 48.5098 46.206 47.694 46.206C46.8782 46.206 46.1527 46.0067 45.5176 45.6081C44.8824 45.2096 44.3826 44.6429 44.0183 43.9081C43.654 43.1733 43.4719 42.3015 43.4719 41.2926C43.4719 40.2838 43.654 39.412 44.0183 38.6772C44.3826 37.9424 44.8824 37.3757 45.5176 36.9771C46.1527 36.5786 46.8782 36.3793 47.694 36.3793C48.5098 36.3793 49.2352 36.5786 49.8704 36.9771C50.5056 37.3757 51.0053 37.9424 51.3696 38.6772C51.7339 39.412 51.9161 40.2838 51.9161 41.2926ZM50.7952 41.2926C50.7952 40.4644 50.6566 39.7654 50.3795 39.1956C50.1055 38.6258 49.7334 38.1946 49.2633 37.9019C48.7962 37.6092 48.2731 37.4629 47.694 37.4629C47.1149 37.4629 46.5902 37.6092 46.12 37.9019C45.653 38.1946 45.2809 38.6258 45.0038 39.1956C44.7298 39.7654 44.5928 40.4644 44.5928 41.2926C44.5928 42.1209 44.7298 42.8199 45.0038 43.3897C45.2809 43.9595 45.653 44.3907 46.12 44.6834C46.5902 44.9761 47.1149 45.1224 47.694 45.1224C48.2731 45.1224 48.7962 44.9761 49.2633 44.6834C49.7334 44.3907 50.1055 43.9595 50.3795 43.3897C50.6566 42.8199 50.7952 42.1209 50.7952 41.2926ZM53.8637 46.0752V36.5101H55.0219V45.0477H59.4682V46.0752H53.8637ZM67.5388 36.5101H68.697V42.8432C68.697 43.4971 68.5429 44.0809 68.2347 44.5947C67.9295 45.1053 67.4983 45.5085 66.9409 45.8043C66.3836 46.097 65.7297 46.2433 64.9793 46.2433C64.229 46.2433 63.5751 46.097 63.0178 45.8043C62.4604 45.5085 62.0276 45.1053 61.7194 44.5947C61.4142 44.0809 61.2617 43.4971 61.2617 42.8432V36.5101H62.4199V42.7498C62.4199 43.2169 62.5227 43.6325 62.7282 43.9968C62.9337 44.358 63.2264 44.6429 63.6062 44.8515C63.9892 45.057 64.4469 45.1598 64.9793 45.1598C65.5118 45.1598 65.9695 45.057 66.3525 44.8515C66.7354 44.6429 67.0281 44.358 67.2305 43.9968C67.436 43.6325 67.5388 43.2169 67.5388 42.7498V36.5101ZM70.487 37.5376V36.5101H77.6608V37.5376H74.653V46.0752H73.4948V37.5376H70.487ZM80.6067 36.5101V46.0752H79.4484V36.5101H80.6067ZM90.9996 41.2926C90.9996 42.3015 90.8175 43.1733 90.4532 43.9081C90.0889 44.6429 89.5891 45.2096 88.954 45.6081C88.3188 46.0067 87.5933 46.206 86.7775 46.206C85.9618 46.206 85.2363 46.0067 84.6011 45.6081C83.9659 45.2096 83.4662 44.6429 83.1019 43.9081C82.7376 43.1733 82.5554 42.3015 82.5554 41.2926C82.5554 40.2838 82.7376 39.412 83.1019 38.6772C83.4662 37.9424 83.9659 37.3757 84.6011 36.9771C85.2363 36.5786 85.9618 36.3793 86.7775 36.3793C87.5933 36.3793 88.3188 36.5786 88.954 36.9771C89.5891 37.3757 90.0889 37.9424 90.4532 38.6772C90.8175 39.412 90.9996 40.2838 90.9996 41.2926ZM89.8787 41.2926C89.8787 40.4644 89.7402 39.7654 89.463 39.1956C89.189 38.6258 88.817 38.1946 88.3468 37.9019C87.8798 37.6092 87.3567 37.4629 86.7775 37.4629C86.1984 37.4629 85.6737 37.6092 85.2036 37.9019C84.7365 38.1946 84.3645 38.6258 84.0873 39.1956C83.8133 39.7654 83.6763 40.4644 83.6763 41.2926C83.6763 42.1209 83.8133 42.8199 84.0873 43.3897C84.3645 43.9595 84.7365 44.3907 85.2036 44.6834C85.6737 44.9761 86.1984 45.1224 86.7775 45.1224C87.3567 45.1224 87.8798 44.9761 88.3468 44.6834C88.817 44.3907 89.189 43.9595 89.463 43.3897C89.7402 42.8199 89.8787 42.1209 89.8787 41.2926ZM100.532 36.5101V46.0752H99.4111L94.1989 38.5651H94.1055V46.0752H92.9472V36.5101H94.0681L99.299 44.0389H99.3924V36.5101H100.532ZM108.081 38.9014C108.025 38.4281 107.797 38.0607 107.399 37.7991C107 37.5376 106.511 37.4068 105.932 37.4068C105.509 37.4068 105.138 37.4753 104.821 37.6123C104.506 37.7493 104.26 37.9377 104.083 38.1775C103.908 38.4172 103.821 38.6896 103.821 38.9948C103.821 39.2501 103.882 39.4696 104.003 39.6533C104.128 39.8339 104.287 39.9849 104.48 40.1064C104.673 40.2247 104.875 40.3228 105.087 40.4006C105.299 40.4753 105.493 40.536 105.671 40.5827L106.642 40.8443C106.891 40.9097 107.168 41 107.473 41.1152C107.782 41.2304 108.076 41.3876 108.356 41.5869C108.64 41.783 108.873 42.0353 109.057 42.3435C109.24 42.6518 109.332 43.0301 109.332 43.4784C109.332 43.9953 109.197 44.4623 108.926 44.8796C108.658 45.2968 108.266 45.6284 107.749 45.8744C107.235 46.1203 106.611 46.2433 105.876 46.2433C105.191 46.2433 104.598 46.1328 104.097 45.9117C103.599 45.6907 103.206 45.3824 102.92 44.987C102.636 44.5915 102.476 44.1323 102.439 43.6092H103.634C103.666 43.9704 103.787 44.2693 103.999 44.5059C104.214 44.7394 104.484 44.9138 104.811 45.029C105.141 45.1411 105.496 45.1971 105.876 45.1971C106.318 45.1971 106.715 45.1255 107.067 44.9823C107.419 44.836 107.698 44.6336 107.903 44.3751C108.109 44.1136 108.211 43.8085 108.211 43.4597C108.211 43.1421 108.123 42.8837 107.945 42.6844C107.768 42.4852 107.534 42.3233 107.245 42.1987C106.955 42.0742 106.642 41.9652 106.306 41.8718L105.129 41.5355C104.382 41.3207 103.79 41.014 103.354 40.6154C102.918 40.2169 102.7 39.6954 102.7 39.0508C102.7 38.5153 102.845 38.0482 103.135 37.6497C103.427 37.248 103.82 36.9367 104.312 36.7156C104.807 36.4914 105.359 36.3793 105.97 36.3793C106.586 36.3793 107.134 36.4899 107.614 36.7109C108.093 36.9289 108.473 37.2278 108.753 37.6077C109.037 37.9875 109.186 38.4188 109.202 38.9014H108.081ZM111.629 46.0752H110.415L113.927 36.5101H115.123L118.635 46.0752H117.42L114.562 38.0233H114.487L111.629 46.0752ZM112.077 42.3388H116.972V43.3663H112.077V42.3388ZM123.076 46.0752H120.125V36.5101H123.207C124.135 36.5101 124.929 36.7016 125.589 37.0846C126.249 37.4644 126.755 38.0109 127.107 38.7239C127.459 39.4338 127.635 40.2838 127.635 41.274C127.635 42.2703 127.457 43.1281 127.102 43.8474C126.747 44.5635 126.23 45.1146 125.552 45.5007C124.873 45.8837 124.048 46.0752 123.076 46.0752ZM121.283 45.0477H123.002C123.792 45.0477 124.448 44.8951 124.968 44.59C125.488 44.2849 125.875 43.8505 126.131 43.2869C126.386 42.7234 126.514 42.0524 126.514 41.274C126.514 40.5018 126.388 39.837 126.135 39.2797C125.883 38.7192 125.506 38.2895 125.005 37.9906C124.504 37.6886 123.88 37.5376 123.132 37.5376H121.283V45.0477ZM129.52 36.5101L132.36 44.562H132.472L135.312 36.5101H136.526L133.014 46.0752H131.818L128.306 36.5101H129.52ZM139.174 36.5101V46.0752H138.016V36.5101H139.174ZM146.727 38.9014C146.671 38.4281 146.444 38.0607 146.046 37.7991C145.647 37.5376 145.158 37.4068 144.579 37.4068C144.156 37.4068 143.785 37.4753 143.468 37.6123C143.153 37.7493 142.907 37.9377 142.73 38.1775C142.555 38.4172 142.468 38.6896 142.468 38.9948C142.468 39.2501 142.529 39.4696 142.65 39.6533C142.775 39.8339 142.934 39.9849 143.127 40.1064C143.32 40.2247 143.522 40.3228 143.734 40.4006C143.945 40.4753 144.14 40.536 144.318 40.5827L145.289 40.8443C145.538 40.9097 145.815 41 146.12 41.1152C146.429 41.2304 146.723 41.3876 147.003 41.5869C147.286 41.783 147.52 42.0353 147.704 42.3435C147.887 42.6518 147.979 43.0301 147.979 43.4784C147.979 43.9953 147.844 44.4623 147.573 44.8796C147.305 45.2968 146.913 45.6284 146.396 45.8744C145.882 46.1203 145.258 46.2433 144.523 46.2433C143.838 46.2433 143.245 46.1328 142.744 45.9117C142.245 45.6907 141.853 45.3824 141.567 44.987C141.283 44.5915 141.123 44.1323 141.086 43.6092H142.281C142.312 43.9704 142.434 44.2693 142.646 44.5059C142.86 44.7394 143.131 44.9138 143.458 45.029C143.788 45.1411 144.143 45.1971 144.523 45.1971C144.965 45.1971 145.362 45.1255 145.714 44.9823C146.066 44.836 146.345 44.6336 146.55 44.3751C146.756 44.1136 146.858 43.8085 146.858 43.4597C146.858 43.1421 146.77 42.8837 146.592 42.6844C146.415 42.4852 146.181 42.3233 145.891 42.1987C145.602 42.0742 145.289 41.9652 144.953 41.8718L143.776 41.5355C143.028 41.3207 142.437 41.014 142.001 40.6154C141.565 40.2169 141.347 39.6954 141.347 39.0508C141.347 38.5153 141.492 38.0482 141.781 37.6497C142.074 37.248 142.466 36.9367 142.958 36.7156C143.453 36.4914 144.006 36.3793 144.616 36.3793C145.233 36.3793 145.781 36.4899 146.26 36.7109C146.74 36.9289 147.12 37.2278 147.4 37.6077C147.683 37.9875 147.833 38.4188 147.848 38.9014H146.727ZM157.954 41.2926C157.954 42.3015 157.772 43.1733 157.408 43.9081C157.043 44.6429 156.544 45.2096 155.908 45.6081C155.273 46.0067 154.548 46.206 153.732 46.206C152.916 46.206 152.191 46.0067 151.556 45.6081C150.92 45.2096 150.421 44.6429 150.056 43.9081C149.692 43.1733 149.51 42.3015 149.51 41.2926C149.51 40.2838 149.692 39.412 150.056 38.6772C150.421 37.9424 150.92 37.3757 151.556 36.9771C152.191 36.5786 152.916 36.3793 153.732 36.3793C154.548 36.3793 155.273 36.5786 155.908 36.9771C156.544 37.3757 157.043 37.9424 157.408 38.6772C157.772 39.412 157.954 40.2838 157.954 41.2926ZM156.833 41.2926C156.833 40.4644 156.695 39.7654 156.418 39.1956C156.144 38.6258 155.771 38.1946 155.301 37.9019C154.834 37.6092 154.311 37.4629 153.732 37.4629C153.153 37.4629 152.628 37.6092 152.158 37.9019C151.691 38.1946 151.319 38.6258 151.042 39.1956C150.768 39.7654 150.631 40.4644 150.631 41.2926C150.631 42.1209 150.768 42.8199 151.042 43.3897C151.319 43.9595 151.691 44.3907 152.158 44.6834C152.628 44.9761 153.153 45.1224 153.732 45.1224C154.311 45.1224 154.834 44.9761 155.301 44.6834C155.771 44.3907 156.144 43.9595 156.418 43.3897C156.695 42.8199 156.833 42.1209 156.833 41.2926ZM159.902 46.0752V36.5101H163.134C163.881 36.5101 164.494 36.6378 164.974 36.8931C165.453 37.1453 165.808 37.4925 166.039 37.9346C166.269 38.3767 166.384 38.8796 166.384 39.4431C166.384 40.0067 166.269 40.5065 166.039 40.9424C165.808 41.3783 165.455 41.7208 164.978 41.9699C164.502 42.2158 163.893 42.3388 163.152 42.3388H160.537V41.2926H163.115C163.626 41.2926 164.037 41.2179 164.348 41.0685C164.662 40.919 164.89 40.7073 165.03 40.4333C165.173 40.1562 165.245 39.8261 165.245 39.4431C165.245 39.0602 165.173 38.7255 165.03 38.439C164.887 38.1525 164.658 37.9315 164.343 37.7758C164.029 37.617 163.613 37.5376 163.096 37.5376H161.06V46.0752H159.902ZM164.404 41.7784L166.758 46.0752H165.413L163.096 41.7784H164.404ZM167.171 36.5101H168.498L171.15 40.9751H171.263L173.915 36.5101H175.242L171.786 42.1333V46.0752H170.627V42.1333L167.171 36.5101Z" fill="white"/>
<path fill-rule="evenodd" clip-rule="evenodd" d="M17.8868 0L19.602 0.119189L20.786 1.39744L21.7524 1.63052L21.4985 4.2775L19.4948 6.0073L11.1733 11.967L10.2098 14.6511L10.9915 17.3269L14.9334 21.4942L15.9502 23.5175L17.7054 22.9663L19.9576 24.4598L20.2773 26.29L21.298 26.5314L25.8585 32.4419L27.1588 33.7874C27.1206 35.0689 27.133 35.9399 27.2131 36.398L27.5466 37.1085L26.8403 38.6639L25.8355 42.3152C24.1825 44.3511 23.2269 45.8802 22.9522 46.9062L21.6485 47.344L21.5664 48.0741L16.1194 54.0909C14.7095 56.1192 13.5896 57.3099 12.7666 57.6984L7.0871 60.385C6.63351 61.2847 6.02768 62.0193 5.27142 62.5884L4.01946 60.9207L3.81812 59.768L2.96921 59.0079L4.64978 57.2299C4.91252 56.4327 5.12387 55.9416 5.27226 55.7936L5.68375 55.2499C5.82972 55.0844 6.58803 54.725 7.95254 54.1373C8.56549 53.2442 9.1274 52.7618 9.58473 52.6821L10.3306 52.5518C11.1578 51.5862 11.7323 50.8749 12.0512 50.3996L12.7459 50.2782L12.8551 49.7004L13.5142 49.3756L13.6943 47.8068L14.1012 47.736L14.7312 46.1413L16.0682 45.2961L16.2587 43.9879L16.6823 43.5122L17.0925 40.2615L16.0687 38.7986L12.9868 33.1528L7.61778 30.6147C6.62845 29.652 5.75673 28.8611 5.00215 28.242L4.32792 26.6828C4.09787 26.1637 3.60049 25.5171 2.81962 24.745L2.27555 24.6308L1.24279 22.8197L1.12155 22.1247C0.684972 20.9256 0.308465 20.1706 0 19.805L0.717056 16.3087L1.26113 16.4235L1.00936 14.9826L1.9882 13.8856L1.88445 13.2923C2.92047 12.221 3.64344 11.3608 4.05408 10.7126L4.98623 10.5496L5.10795 11.2449L5.68375 9.24045L5.75468 9.64687C5.75347 9.43769 6.33493 8.96902 7.49484 8.20817C7.51065 7.69873 7.80995 7.31426 8.43376 7.08336C9.21379 5.54948 9.62021 4.67488 9.6523 4.45966L10.5662 4.09076L11.2967 4.17243L11.6185 3.71473L13.2623 3.42739L13.2095 3.12265L15.8923 1.78023C16.1916 1.69349 16.8132 1.2528 17.7542 0.441891L17.8868 0Z" fill="#0096FC"/>
</svg>
