<svg width="84" height="84" viewBox="0 0 84 84" fill="none" xmlns="http://www.w3.org/2000/svg">
<g clip-path="url(#clip0_43_1643)">
<path d="M29.16 19.72C28.92 20.46 29.16 21.26 29.76 21.75L35.18 26.11L33.36 32.82C33.16 33.57 33.43 34.36 34.06 34.82C34.69 35.28 35.52 35.3 36.18 34.87L42 31.06L47.82 34.87C48.12 35.07 48.48 35.18 48.84 35.18C49.23 35.18 49.62 35.05 49.93 34.82C50.56 34.36 50.84 33.58 50.63 32.82L48.81 26.11L54.23 21.75C54.84 21.26 55.08 20.46 54.84 19.72C54.6 18.98 53.94 18.47 53.16 18.43L46.21 18.09L43.74 11.59C43.46 10.86 42.78 10.39 42 10.39C41.22 10.39 40.53 10.86 40.26 11.59L37.79 18.09L30.85 18.43C30.07 18.47 29.41 18.97 29.17 19.72H29.16ZM38.41 20.69C39.15 20.65 39.8 20.18 40.06 19.49L41.99 14.4L43.92 19.49C44.18 20.18 44.83 20.65 45.57 20.69L51.01 20.96L46.76 24.37C46.18 24.83 45.93 25.6 46.13 26.31L47.56 31.57L43 28.59C42.38 28.18 41.58 28.18 40.96 28.59L36.4 31.57L37.83 26.31C38.02 25.59 37.78 24.83 37.2 24.37L32.95 20.96L38.39 20.69H38.41ZM40.68 6.12V1.31C40.68 0.59 41.27 0 41.99 0C42.71 0 43.3 0.59 43.3 1.31V6.13C43.3 6.85 42.71 7.44 41.99 7.44C41.27 7.44 40.68 6.85 40.68 6.13V6.12ZM48.67 13.9C48.18 13.36 48.23 12.53 48.77 12.05L54.14 7.22C54.68 6.73 55.51 6.78 55.99 7.32C56.48 7.86 56.43 8.69 55.89 9.17L50.52 14C50.28 14.22 49.97 14.34 49.64 14.34C49.27 14.34 48.91 14.18 48.66 13.91L48.67 13.9ZM27.99 7.31C28.48 6.77 29.3 6.73 29.84 7.21L35.21 12.04C35.75 12.53 35.79 13.35 35.31 13.89C34.82 14.43 34 14.47 33.46 13.99L28.09 9.16C27.55 8.67 27.51 7.85 27.99 7.31ZM58.83 21.75L64.25 26.11L62.43 32.82C62.23 33.57 62.5 34.36 63.13 34.82C63.76 35.28 64.59 35.3 65.25 34.87L71.07 31.06L76.89 34.87C77.19 35.07 77.55 35.18 77.91 35.18C78.3 35.18 78.69 35.05 79 34.82C79.63 34.36 79.91 33.58 79.7 32.82L77.88 26.11L83.3 21.75C83.91 21.26 84.15 20.46 83.91 19.72C83.67 18.98 83.01 18.47 82.23 18.43L75.28 18.09L72.81 11.59C72.53 10.86 71.85 10.39 71.07 10.39C70.29 10.39 69.6 10.86 69.33 11.59L66.86 18.09L59.92 18.43C59.14 18.47 58.48 18.97 58.24 19.72C58 20.46 58.24 21.26 58.84 21.75H58.83ZM67.48 20.7C68.22 20.66 68.87 20.19 69.13 19.5L71.06 14.41L72.99 19.5C73.25 20.19 73.9 20.66 74.64 20.7L80.08 20.97L75.84 24.38C75.26 24.84 75.01 25.61 75.21 26.32L76.64 31.58L72.08 28.6C71.46 28.19 70.66 28.19 70.04 28.6L65.48 31.58L66.91 26.32C67.1 25.6 66.86 24.84 66.28 24.38L62.03 20.97L67.47 20.7H67.48ZM0.700013 21.75L6.12001 26.11L4.30001 32.82C4.10001 33.57 4.37001 34.36 5.00001 34.82C5.63001 35.28 6.46001 35.3 7.12001 34.87L12.94 31.06L18.76 34.87C19.06 35.07 19.42 35.18 19.78 35.18C20.17 35.18 20.56 35.05 20.87 34.82C21.5 34.36 21.78 33.58 21.57 32.82L19.75 26.11L25.17 21.75C25.78 21.26 26.02 20.47 25.78 19.72C25.54 18.98 24.88 18.47 24.1 18.44L17.15 18.1L14.68 11.6C14.4 10.87 13.72 10.4 12.94 10.4C12.16 10.4 11.47 10.87 11.2 11.6L8.73001 18.1L1.79001 18.44C1.01001 18.48 0.350013 18.98 0.110013 19.72C-0.129987 20.46 0.110013 21.26 0.710013 21.75H0.700013ZM9.35001 20.7C10.09 20.66 10.74 20.19 11 19.5L12.93 14.41L14.86 19.5C15.12 20.19 15.77 20.66 16.51 20.7L21.95 20.97L17.71 24.38C17.13 24.84 16.88 25.61 17.08 26.32L18.51 31.58L13.95 28.6C13.33 28.19 12.53 28.19 11.91 28.6L7.35001 31.58L8.78001 26.32C8.97001 25.6 8.73001 24.84 8.15001 24.38L3.90001 20.97L9.34001 20.7H9.35001ZM83.8 69.72C82.88 66.74 80.99 64.06 78.47 62.18C77.28 61.29 75.97 60.58 74.58 60.08C76.49 58.58 77.73 56.24 77.73 53.63C77.73 49.11 74.05 45.43 69.53 45.43C65.01 45.43 61.33 49.11 61.33 53.63C61.33 56.24 62.56 58.57 64.47 60.08C61.91 60.99 59.64 62.6 57.9 64.76C57.08 63.61 56.14 62.56 55.1 61.62C53 59.72 50.51 58.3 47.81 57.46C50.65 55.57 52.53 52.35 52.53 48.69C52.53 42.89 47.81 38.17 42.01 38.17C36.21 38.17 31.49 42.89 31.49 48.69C31.49 52.35 33.37 55.58 36.21 57.46C33.5 58.3 31.02 59.72 28.92 61.62C27.88 62.56 26.94 63.62 26.12 64.76C24.38 62.6 22.11 60.99 19.55 60.08C21.46 58.58 22.69 56.25 22.69 53.63C22.69 49.11 19.01 45.43 14.49 45.43C9.97001 45.43 6.29001 49.11 6.29001 53.63C6.29001 56.25 7.52001 58.58 9.44001 60.08C8.05001 60.58 6.73001 61.29 5.55001 62.18C3.04001 64.06 1.15001 66.74 0.220013 69.72C-0.209987 71.1 0.0300127 72.5 0.890013 73.66C1.75001 74.82 3.01001 75.46 4.45001 75.46H22.59V77.83C22.59 81.24 25.36 84.01 28.77 84.01H55.25C58.66 84.01 61.43 81.24 61.43 77.83V75.46H79.57C81.01 75.46 82.28 74.82 83.13 73.66C83.99 72.5 84.22 71.1 83.8 69.72ZM69.53 48.05C72.61 48.05 75.11 50.55 75.11 53.63C75.11 56.71 72.61 59.21 69.53 59.21C66.45 59.21 63.95 56.71 63.95 53.63C63.95 50.55 66.45 48.05 69.53 48.05ZM34.11 48.68C34.11 44.33 37.65 40.78 42.01 40.78C46.37 40.78 49.91 44.32 49.91 48.68C49.91 53.04 46.37 56.57 42.02 56.58C37.67 56.58 34.13 53.04 34.13 48.68H34.11ZM14.49 48.05C17.57 48.05 20.07 50.55 20.07 53.63C20.07 56.71 17.57 59.21 14.49 59.21C11.41 59.21 8.91001 56.71 8.91001 53.63C8.91001 50.55 11.41 48.05 14.49 48.05ZM22.76 72.83H4.44001C3.84001 72.83 3.35001 72.58 2.99001 72.1C2.63001 71.61 2.54001 71.07 2.72001 70.5C4.33001 65.32 9.05001 61.83 14.48 61.83C18.59 61.83 22.33 63.82 24.63 67.18C23.72 68.96 23.08 70.86 22.75 72.84L22.76 72.83ZM58.81 77.82C58.81 79.78 57.22 81.37 55.26 81.37H28.78C26.82 81.37 25.23 79.78 25.23 77.82V74.21C26.18 65.65 33.39 59.2 42.02 59.2C50.65 59.2 57.86 65.65 58.81 74.21V77.82ZM81.03 72.09C80.67 72.58 80.18 72.82 79.58 72.82H61.27C60.94 70.85 60.3 68.94 59.39 67.16C61.69 63.8 65.43 61.81 69.54 61.81C74.97 61.81 79.7 65.29 81.3 70.48C81.48 71.06 81.39 71.6 81.03 72.08V72.09Z" fill="#00AEFF"/>
</g>
<defs>
<clipPath id="clip0_43_1643">
<rect width="84" height="84" fill="white"/>
</clipPath>
</defs>
</svg>
