<svg width="84" height="84" viewBox="0 0 84 84" fill="none" xmlns="http://www.w3.org/2000/svg">
<g clip-path="url(#clip0_43_1639)">
<path d="M84 47.49V36.5C84 35.83 83.52 35.27 82.86 35.16L76.14 34.08C75.27 30.31 73.79 26.74 71.73 23.44L75.72 17.92C76.11 17.38 76.05 16.64 75.58 16.17L67.81 8.4C67.34 7.93 66.6 7.87 66.06 8.26L60.54 12.25C57.25 10.19 53.68 8.71 49.9 7.84L48.82 1.12C48.73 0.48 48.16 0 47.49 0H36.5C35.83 0 35.27 0.48 35.16 1.14L34.08 7.86C30.31 8.73 26.74 10.21 23.44 12.27L17.92 8.28C17.38 7.89 16.64 7.95 16.17 8.42L8.4 16.19C7.93 16.66 7.87 17.4 8.26 17.94L12.25 23.46C10.19 26.75 8.71 30.32 7.84 34.1L1.12 35.18C0.48 35.27 0 35.84 0 36.51V47.5C0 48.17 0.48 48.73 1.14 48.84L7.86 49.92C8.73 53.69 10.21 57.26 12.27 60.56L8.28 66.08C7.89 66.62 7.95 67.36 8.42 67.83L16.19 75.6C16.66 76.07 17.4 76.13 17.94 75.74L23.46 71.75C26.75 73.81 30.32 75.29 34.1 76.16L35.18 82.88C35.29 83.54 35.85 84.02 36.52 84.02H47.51C48.18 84.02 48.74 83.54 48.85 82.88L49.82 76.85C53.35 81.22 58.75 84.02 64.79 84.02C75.4 84.02 84.02 75.39 84.02 64.79C84.02 58.75 81.22 53.35 76.85 49.82L82.88 48.85C83.54 48.75 84.02 48.18 84.02 47.51L84 47.49ZM66.2 45.58C65.72 45.54 65.24 45.53 64.76 45.53C61.85 45.53 59.09 46.18 56.62 47.34V45.2C56.62 42 54.2 39.56 49.97 38.51C48.52 38.15 47.04 37.89 45.56 37.72C47.8 36.15 49.33 33.13 49.33 29.68C49.33 25.01 46.52 22.11 42 22.11C37.48 22.11 34.67 25.01 34.67 29.68C34.67 33.12 36.18 36.13 38.42 37.71C36.93 37.87 35.46 38.14 34.01 38.52C29.73 39.62 27.37 41.99 27.37 45.2V57.25C27.37 58 27.98 58.6 28.72 58.6H46.53C45.87 60.53 45.52 62.6 45.52 64.76C45.52 65.24 45.54 65.72 45.57 66.2C44.38 66.37 43.18 66.46 41.98 66.46C28.49 66.46 17.52 55.49 17.52 42C17.52 28.51 28.49 17.54 41.98 17.54C55.47 17.54 66.44 28.51 66.44 42C66.44 43.2 66.35 44.4 66.18 45.59L66.2 45.58ZM49.24 46.61C48.49 46.61 47.89 47.22 47.89 47.96V55.54C47.83 55.65 47.77 55.77 47.71 55.88H36.12V47.95C36.12 47.2 35.51 46.6 34.77 46.6C34.03 46.6 33.42 47.21 33.42 47.95V55.88H30.1V45.18C30.1 42.8 32.6 41.66 34.71 41.12C39.47 39.9 44.4 39.9 49.34 41.12C51.06 41.55 53.93 42.64 53.93 45.18V48.87C52.72 49.7 51.6 50.67 50.61 51.75V47.95C50.61 47.2 50 46.6 49.26 46.6L49.24 46.61ZM42 36.17C39.45 36.17 37.38 33.26 37.38 29.68C37.38 25.45 40.27 24.82 42 24.82C43.73 24.82 46.62 25.45 46.62 29.68C46.62 33.26 44.55 36.17 42 36.17ZM81.29 64.76C81.29 73.87 73.88 81.28 64.77 81.28C55.66 81.28 48.25 73.87 48.25 64.76C48.25 55.65 55.66 48.24 64.77 48.24C73.88 48.24 81.29 55.65 81.29 64.76ZM81.29 46.33L74.8 47.37C74.47 47.42 74.17 47.6 73.96 47.86C72.37 46.99 70.66 46.35 68.89 45.97C69.08 44.65 69.18 43.32 69.18 41.99C69.18 27.01 56.99 14.82 42.01 14.82C27.03 14.82 14.84 27.01 14.84 41.99C14.84 56.97 27.03 69.16 42.01 69.16C43.34 69.16 44.67 69.06 45.99 68.87C46.38 70.64 47.02 72.35 47.88 73.94C47.62 74.15 47.44 74.45 47.39 74.78L46.35 81.27H37.67L36.63 74.78C36.54 74.22 36.11 73.78 35.56 73.67C31.48 72.84 27.65 71.26 24.17 68.95C23.7 68.64 23.08 68.65 22.63 68.98L17.3 72.84L11.16 66.7L15.02 61.37C15.35 60.91 15.36 60.3 15.05 59.83C12.74 56.35 11.15 52.52 10.33 48.44C10.22 47.89 9.77 47.46 9.22 47.37L2.73 46.33V37.65L9.22 36.61C9.78 36.52 10.22 36.09 10.33 35.54C11.16 31.46 12.74 27.63 15.05 24.15C15.36 23.68 15.35 23.06 15.02 22.61L11.16 17.28L17.3 11.14L22.63 15C23.09 15.33 23.7 15.34 24.17 15.03C27.65 12.72 31.48 11.13 35.56 10.31C36.11 10.2 36.54 9.75 36.63 9.2L37.67 2.71H46.35L47.39 9.2C47.48 9.76 47.91 10.2 48.46 10.31C52.54 11.14 56.37 12.73 59.85 15.03C60.32 15.34 60.94 15.33 61.39 15L66.72 11.14L72.86 17.28L69 22.61C68.67 23.07 68.66 23.68 68.97 24.15C71.28 27.63 72.87 31.46 73.69 35.54C73.8 36.09 74.25 36.52 74.8 36.61L81.29 37.65V46.33ZM70.22 57.3L62.12 65.51L59.31 62.7C58.56 61.95 57.56 61.53 56.49 61.53C55.42 61.53 54.42 61.94 53.67 62.7C52.92 63.45 52.5 64.46 52.5 65.52C52.5 66.58 52.92 67.59 53.67 68.34L59.31 73.98C60.09 74.76 61.11 75.15 62.13 75.15C63.15 75.15 64.17 74.76 64.95 73.98C67.83 71.1 73.7 65.09 75.86 62.91C76.61 62.16 77.02 61.15 77.02 60.09C77.02 59.03 76.6 58.02 75.85 57.28C74.29 55.73 71.77 55.74 70.22 57.3ZM73.94 61C71.77 63.19 65.9 69.2 63.03 72.07C62.53 72.57 61.72 72.57 61.23 72.07L55.59 66.43C55.35 66.19 55.22 65.87 55.22 65.53C55.22 65.19 55.35 64.87 55.59 64.63C55.83 64.39 56.15 64.26 56.49 64.26C56.83 64.26 57.15 64.39 57.39 64.63L61.17 68.41C61.42 68.66 61.77 68.81 62.13 68.81C62.49 68.81 62.84 68.66 63.09 68.41L72.14 59.23C72.63 58.73 73.44 58.73 73.93 59.23C74.17 59.47 74.3 59.79 74.3 60.13C74.3 60.47 74.17 60.79 73.93 61.03L73.94 61Z" fill="#00AEFF"/>
</g>
<defs>
<clipPath id="clip0_43_1639">
<rect width="84" height="84" fill="white"/>
</clipPath>
</defs>
</svg>
