<svg width="172" height="55" viewBox="0 0 172 55" fill="none" xmlns="http://www.w3.org/2000/svg">
<path fill-rule="evenodd" clip-rule="evenodd" d="M54.2779 13.2517C54.7191 13.2517 55.0944 13.4062 55.4033 13.7146C55.7122 14.0235 55.8666 14.3986 55.8666 14.84C55.8666 15.2593 55.7232 15.6178 55.4363 15.9157C55.1495 16.2136 54.8074 16.3846 54.4102 16.4287H47.7589C47.0969 16.4729 46.5507 16.6323 46.1205 16.9081C45.6901 17.184 45.3537 17.5205 45.1109 17.9176C44.8682 18.3149 44.7032 18.7452 44.6149 19.2085C44.5267 19.6715 44.4826 20.0907 44.4826 20.4659V26.0918C44.4826 26.5331 44.3281 26.9081 44.0191 27.2172C43.7102 27.5261 43.3351 27.6805 42.8937 27.6805C42.4524 27.6805 42.0773 27.5261 41.769 27.2172C41.46 26.9081 41.3055 26.5331 41.3055 26.0918V20.4659C41.3055 19.7818 41.3938 19.0927 41.5703 18.3976C41.7469 17.7026 42.0111 17.046 42.3642 16.4287H31.5097C31.0684 16.4287 30.6932 16.2743 30.3843 15.9654C30.0754 15.6565 29.9209 15.2813 29.9209 14.84C29.9209 14.3986 30.0754 14.0235 30.3843 13.7146C30.6932 13.4062 31.0684 13.2517 31.5097 13.2517H54.2779ZM78.5025 24.5034C79.2527 24.5034 79.87 24.3656 80.3554 24.0897C80.8409 23.814 81.2216 23.4774 81.4975 23.0802C81.7732 22.683 81.9608 22.2477 82.0602 21.7733C82.1594 21.2989 82.209 20.8631 82.209 20.4659C82.209 20.0687 82.1594 19.6328 82.0602 19.159C81.9608 18.6845 81.7732 18.2487 81.4975 17.8515C81.2216 17.4543 80.8409 17.1178 80.3554 16.8419C79.87 16.5661 79.2527 16.4287 78.5025 16.4287H65.1324C64.36 16.4287 63.7372 16.5661 63.2628 16.8419C62.7884 17.1178 62.4132 17.4543 62.1374 17.8515C61.8615 18.2487 61.674 18.6845 61.5747 19.159C61.4754 19.6328 61.4257 20.0687 61.4257 20.4659C61.4257 20.8631 61.4754 21.2989 61.5747 21.7733C61.674 22.2477 61.8615 22.683 62.1374 23.0802C62.4132 23.4774 62.7884 23.814 63.2628 24.0897C63.7372 24.3656 64.36 24.5034 65.1324 24.5034H78.5025ZM85.2862 20.4659C85.2862 21.3043 85.1489 22.1484 84.873 22.9975C84.5972 23.847 84.1945 24.6194 83.6649 25.3144C83.1353 26.009 82.4953 26.5772 81.7457 27.0185C80.9954 27.4599 80.1459 27.6805 79.1976 27.6805H64.1068C63.2021 27.6363 62.3966 27.3881 61.6905 26.9358C60.985 26.4834 60.3837 25.9152 59.8871 25.2316C59.3906 24.5476 59.0101 23.7863 58.7452 22.9478C58.4804 22.1098 58.3481 21.2824 58.3481 20.4659C58.3481 19.6273 58.486 18.7838 58.7617 17.9343C59.0376 17.0846 59.4403 16.3129 59.9699 15.6178C60.4995 14.9227 61.1394 14.3545 61.8891 13.9131C62.6394 13.4724 63.489 13.2517 64.4373 13.2517H79.528C80.4327 13.2958 81.2381 13.5441 81.9443 13.9959C82.6499 14.4483 83.2512 15.0165 83.7476 15.7005C84.2441 16.3846 84.6248 17.1454 84.8896 17.9839C85.1544 18.8224 85.2862 19.6494 85.2862 20.4659ZM112.125 13.2517C112.566 13.2517 112.942 13.4062 113.25 13.7146C113.56 14.0235 113.714 14.3986 113.714 14.84C113.714 15.2593 113.57 15.6178 113.284 15.9157C112.997 16.2136 112.655 16.3846 112.258 16.4287H105.606C104.944 16.4729 104.398 16.6323 103.968 16.9081C103.537 17.184 103.201 17.5205 102.958 17.9176C102.715 18.3149 102.55 18.7452 102.462 19.2085C102.374 19.6715 102.33 20.0907 102.33 20.4659V26.0918C102.33 26.5331 102.175 26.9081 101.866 27.2172C101.558 27.5261 101.182 27.6805 100.741 27.6805C100.3 27.6805 99.9246 27.5261 99.6162 27.2172C99.3073 26.9081 99.1528 26.5331 99.1528 26.0918V20.4659C99.1528 19.7818 99.2411 19.0927 99.4176 18.3976C99.5942 17.7026 99.8584 17.046 100.212 16.4287H89.357C88.9156 16.4287 88.5405 16.2743 88.2316 15.9654C87.9226 15.6565 87.7681 15.2813 87.7681 14.84C87.7681 14.3986 87.9226 14.0235 88.2316 13.7146C88.5405 13.4062 88.9156 13.2517 89.357 13.2517H112.125ZM122.682 24.1062C122.682 23.5325 122.88 23.047 123.278 22.6498C123.675 22.2533 124.16 22.0546 124.734 22.0546C125.307 22.0546 125.793 22.2533 126.19 22.6498C126.587 23.047 126.786 23.5325 126.786 24.1062C126.786 24.68 126.587 25.1655 126.19 25.5626C125.793 25.9593 125.307 26.158 124.734 26.158C124.16 26.158 123.675 25.9593 123.278 25.5626C122.88 25.1655 122.682 24.68 122.682 24.1062ZM115.699 27.0847C115.368 27.4819 114.96 27.6805 114.475 27.6805C114.033 27.6805 113.658 27.5261 113.349 27.2172C113.04 26.9081 112.886 26.5331 112.886 26.0918C112.886 25.6945 112.996 25.3751 113.217 25.1324L121.259 14.3103C121.634 13.8029 122.13 13.3896 122.748 13.0696C123.366 12.7497 124.028 12.5897 124.734 12.5897C125.395 12.5897 126.024 12.7331 126.62 13.0201C127.216 13.3069 127.701 13.7035 128.076 14.2111L136.118 24.9669C136.25 25.1214 136.361 25.2923 136.449 25.4799C136.537 25.6669 136.581 25.871 136.581 26.0918C136.581 26.5331 136.427 26.9081 136.118 27.2172C135.809 27.5261 135.434 27.6805 134.993 27.6805C134.463 27.6805 134.044 27.4709 133.735 27.0517L126.024 16.7592C125.87 16.5827 125.677 16.3901 125.445 16.1805C125.213 15.9708 124.976 15.866 124.734 15.866C124.491 15.866 124.254 15.9708 124.022 16.1805C123.791 16.3901 123.609 16.5827 123.476 16.7592L115.699 27.0847ZM144.424 27.6805C143.807 27.6805 143.222 27.5647 142.671 27.333C142.119 27.1013 141.639 26.7868 141.231 26.3896C140.823 25.9925 140.497 25.5296 140.254 24.9999C140.012 24.4704 139.89 23.8966 139.89 23.2788V14.84C139.89 14.3986 140.045 14.0235 140.354 13.7146C140.663 13.4062 141.038 13.2517 141.479 13.2517C141.898 13.2517 142.268 13.4062 142.588 13.7146C142.907 14.0235 143.067 14.3986 143.067 14.84V23.2788C143.067 23.6098 143.194 23.8967 143.448 24.1394C143.702 24.3821 143.994 24.5034 144.325 24.5034H164.181C164.622 24.5034 164.998 24.658 165.306 24.9669C165.615 25.2758 165.77 25.6504 165.77 26.0918C165.77 26.5331 165.615 26.9081 165.306 27.2172C164.998 27.5261 164.622 27.6805 164.181 27.6805H144.424Z" fill="#1B1918"/>
<path d="M36.3054 34.674C36.2494 34.2007 36.0221 33.8333 35.6236 33.5717C35.225 33.3102 34.7362 33.1794 34.157 33.1794C33.7336 33.1794 33.3631 33.2479 33.0455 33.3849C32.731 33.5219 32.485 33.7103 32.3075 33.95C32.1332 34.1898 32.046 34.4622 32.046 34.7674C32.046 35.0227 32.1067 35.2422 32.2281 35.4259C32.3527 35.6065 32.5115 35.7575 32.7045 35.8789C32.8976 35.9973 33.1 36.0953 33.3117 36.1732C33.5234 36.2479 33.718 36.3086 33.8955 36.3553L34.8669 36.6169C35.116 36.6823 35.3931 36.7726 35.6983 36.8878C36.0065 37.003 36.3008 37.1602 36.581 37.3595C36.8643 37.5556 37.0979 37.8078 37.2816 38.1161C37.4653 38.4243 37.5571 38.8026 37.5571 39.251C37.5571 39.7679 37.4217 40.2349 37.1508 40.6521C36.883 41.0694 36.4907 41.401 35.9738 41.6469C35.4601 41.8929 34.8358 42.0159 34.101 42.0159C33.416 42.0159 32.8228 41.9054 32.3215 41.6843C31.8234 41.4632 31.431 41.155 31.1446 40.7596C30.8612 40.3641 30.7009 39.9049 30.6635 39.3818H31.8592C31.8903 39.743 32.0117 40.0419 32.2235 40.2785C32.4383 40.512 32.7092 40.6864 33.0361 40.8016C33.3662 40.9137 33.7211 40.9697 34.101 40.9697C34.5431 40.9697 34.9401 40.8981 35.292 40.7549C35.6438 40.6086 35.9225 40.4062 36.128 40.1477C36.3335 39.8862 36.4362 39.5811 36.4362 39.2323C36.4362 38.9147 36.3475 38.6563 36.17 38.457C35.9925 38.2578 35.759 38.0958 35.4694 37.9713C35.1799 37.8468 34.8669 37.7378 34.5307 37.6444L33.3537 37.3081C32.6064 37.0933 32.0149 36.7866 31.5789 36.388C31.143 35.9895 30.9251 35.4679 30.9251 34.8234C30.9251 34.2879 31.0699 33.8208 31.3594 33.4223C31.6521 33.0206 32.0444 32.7093 32.5364 32.4882C33.0315 32.264 33.5841 32.1519 34.1944 32.1519C34.8109 32.1519 35.3589 32.2624 35.8384 32.4835C36.3179 32.7015 36.6978 33.0004 36.978 33.3802C37.2613 33.7601 37.4108 34.1913 37.4264 34.674H36.3054ZM47.532 37.0652C47.532 38.0741 47.3499 38.9459 46.9856 39.6807C46.6213 40.4155 46.1216 40.9822 45.4864 41.3807C44.8512 41.7793 44.1257 41.9786 43.31 41.9786C42.4942 41.9786 41.7687 41.7793 41.1335 41.3807C40.4983 40.9822 39.9986 40.4155 39.6343 39.6807C39.27 38.9459 39.0879 38.0741 39.0879 37.0652C39.0879 36.0564 39.27 35.1846 39.6343 34.4498C39.9986 33.715 40.4983 33.1483 41.1335 32.7497C41.7687 32.3512 42.4942 32.1519 43.31 32.1519C44.1257 32.1519 44.8512 32.3512 45.4864 32.7497C46.1216 33.1483 46.6213 33.715 46.9856 34.4498C47.3499 35.1846 47.532 36.0564 47.532 37.0652ZM46.4111 37.0652C46.4111 36.237 46.2726 35.538 45.9955 34.9682C45.7215 34.3984 45.3494 33.9672 44.8792 33.6745C44.4122 33.3818 43.8891 33.2355 43.31 33.2355C42.7308 33.2355 42.2062 33.3818 41.736 33.6745C41.269 33.9672 40.8969 34.3984 40.6198 34.9682C40.3458 35.538 40.2088 36.237 40.2088 37.0652C40.2088 37.8935 40.3458 38.5925 40.6198 39.1623C40.8969 39.7321 41.269 40.1633 41.736 40.456C42.2062 40.7487 42.7308 40.895 43.31 40.895C43.8891 40.895 44.4122 40.7487 44.8792 40.456C45.3494 40.1633 45.7215 39.7321 45.9955 39.1623C46.2726 38.5925 46.4111 37.8935 46.4111 37.0652ZM49.4796 41.8478V32.2827H50.6379V40.8203H55.0842V41.8478H49.4796ZM63.1547 32.2827H64.313V38.6158C64.313 39.2697 64.1589 39.8535 63.8506 40.3672C63.5455 40.8779 63.1142 41.2811 62.5569 41.5769C61.9996 41.8696 61.3457 42.0159 60.5953 42.0159C59.8449 42.0159 59.1911 41.8696 58.6337 41.5769C58.0764 41.2811 57.6436 40.8779 57.3353 40.3672C57.0302 39.8535 56.8776 39.2697 56.8776 38.6158V32.2827H58.0359V38.5224C58.0359 38.9895 58.1387 39.4051 58.3442 39.7694C58.5497 40.1306 58.8423 40.4155 59.2222 40.6241C59.6052 40.8296 60.0629 40.9324 60.5953 40.9324C61.1277 40.9324 61.5854 40.8296 61.9684 40.6241C62.3514 40.4155 62.6441 40.1306 62.8465 39.7694C63.052 39.4051 63.1547 38.9895 63.1547 38.5224V32.2827ZM66.1029 33.3102V32.2827H73.2768V33.3102H70.269V41.8478H69.1107V33.3102H66.1029ZM76.2227 32.2827V41.8478H75.0644V32.2827H76.2227ZM86.6156 37.0652C86.6156 38.0741 86.4334 38.9459 86.0691 39.6807C85.7048 40.4155 85.2051 40.9822 84.5699 41.3807C83.9347 41.7793 83.2093 41.9786 82.3935 41.9786C81.5777 41.9786 80.8522 41.7793 80.2171 41.3807C79.5819 40.9822 79.0821 40.4155 78.7178 39.6807C78.3535 38.9459 78.1714 38.0741 78.1714 37.0652C78.1714 36.0564 78.3535 35.1846 78.7178 34.4498C79.0821 33.715 79.5819 33.1483 80.2171 32.7497C80.8522 32.3512 81.5777 32.1519 82.3935 32.1519C83.2093 32.1519 83.9347 32.3512 84.5699 32.7497C85.2051 33.1483 85.7048 33.715 86.0691 34.4498C86.4334 35.1846 86.6156 36.0564 86.6156 37.0652ZM85.4947 37.0652C85.4947 36.237 85.3561 35.538 85.079 34.9682C84.805 34.3984 84.4329 33.9672 83.9628 33.6745C83.4957 33.3818 82.9726 33.2355 82.3935 33.2355C81.8144 33.2355 81.2897 33.3818 80.8195 33.6745C80.3525 33.9672 79.9804 34.3984 79.7033 34.9682C79.4293 35.538 79.2923 36.237 79.2923 37.0652C79.2923 37.8935 79.4293 38.5925 79.7033 39.1623C79.9804 39.7321 80.3525 40.1633 80.8195 40.456C81.2897 40.7487 81.8144 40.895 82.3935 40.895C82.9726 40.895 83.4957 40.7487 83.9628 40.456C84.4329 40.1633 84.805 39.7321 85.079 39.1623C85.3561 38.5925 85.4947 37.8935 85.4947 37.0652ZM96.148 32.2827V41.8478H95.0271L89.8148 34.3377H89.7214V41.8478H88.5632V32.2827H89.6841L94.915 39.8115H95.0084V32.2827H96.148ZM103.697 34.674C103.641 34.2007 103.413 33.8333 103.015 33.5717C102.616 33.3102 102.127 33.1794 101.548 33.1794C101.125 33.1794 100.754 33.2479 100.437 33.3849C100.122 33.5219 99.8762 33.7103 99.6987 33.95C99.5243 34.1898 99.4372 34.4622 99.4372 34.7674C99.4372 35.0227 99.4979 35.2422 99.6193 35.4259C99.7438 35.6065 99.9026 35.7575 100.096 35.8789C100.289 35.9973 100.491 36.0953 100.703 36.1732C100.915 36.2479 101.109 36.3086 101.287 36.3553L102.258 36.6169C102.507 36.6823 102.784 36.7726 103.089 36.8878C103.398 37.003 103.692 37.1602 103.972 37.3595C104.256 37.5556 104.489 37.8078 104.673 38.1161C104.856 38.4243 104.948 38.8026 104.948 39.251C104.948 39.7679 104.813 40.2349 104.542 40.6521C104.274 41.0694 103.882 41.401 103.365 41.6469C102.851 41.8929 102.227 42.0159 101.492 42.0159C100.807 42.0159 100.214 41.9054 99.7127 41.6843C99.2145 41.4632 98.8222 41.155 98.5358 40.7596C98.2524 40.3641 98.0921 39.9049 98.0547 39.3818H99.2503C99.2815 39.743 99.4029 40.0419 99.6146 40.2785C99.8295 40.512 100.1 40.6864 100.427 40.8016C100.757 40.9137 101.112 40.9697 101.492 40.9697C101.934 40.9697 102.331 40.8981 102.683 40.7549C103.035 40.6086 103.314 40.4062 103.519 40.1477C103.725 39.8862 103.827 39.5811 103.827 39.2323C103.827 38.9147 103.739 38.6563 103.561 38.457C103.384 38.2578 103.15 38.0958 102.861 37.9713C102.571 37.8468 102.258 37.7378 101.922 37.6444L100.745 37.3081C99.9976 37.0933 99.406 36.7866 98.9701 36.388C98.5342 35.9895 98.3162 35.4679 98.3162 34.8234C98.3162 34.2879 98.461 33.8208 98.7506 33.4223C99.0433 33.0206 99.4356 32.7093 99.9276 32.4882C100.423 32.264 100.975 32.1519 101.586 32.1519C102.202 32.1519 102.75 32.2624 103.23 32.4835C103.709 32.7015 104.089 33.0004 104.369 33.3802C104.652 33.7601 104.802 34.1913 104.818 34.674H103.697ZM107.245 41.8478H106.031L109.543 32.2827H110.738L114.251 41.8478H113.036L110.178 33.7959H110.103L107.245 41.8478ZM107.693 38.1114H112.588V39.1389H107.693V38.1114ZM118.692 41.8478H115.741V32.2827H118.823C119.751 32.2827 120.545 32.4742 121.205 32.8572C121.865 33.237 122.371 33.7835 122.723 34.4965C123.075 35.2064 123.251 36.0564 123.251 37.0466C123.251 38.0429 123.073 38.9007 122.718 39.62C122.363 40.3361 121.846 40.8872 121.168 41.2733C120.489 41.6563 119.664 41.8478 118.692 41.8478ZM116.899 40.8203H118.618C119.408 40.8203 120.064 40.6677 120.584 40.3626C121.104 40.0574 121.491 39.6231 121.747 39.0595C122.002 38.4959 122.13 37.825 122.13 37.0466C122.13 36.2744 122.004 35.6096 121.751 35.0523C121.499 34.4918 121.122 34.0621 120.621 33.7632C120.12 33.4612 119.496 33.3102 118.748 33.3102H116.899V40.8203ZM125.136 32.2827L127.976 40.3346H128.088L130.928 32.2827H132.142L128.63 41.8478H127.434L123.922 32.2827H125.136ZM134.79 32.2827V41.8478H133.632V32.2827H134.79ZM142.343 34.674C142.287 34.2007 142.06 33.8333 141.662 33.5717C141.263 33.3102 140.774 33.1794 140.195 33.1794C139.772 33.1794 139.401 33.2479 139.083 33.3849C138.769 33.5219 138.523 33.7103 138.346 33.95C138.171 34.1898 138.084 34.4622 138.084 34.7674C138.084 35.0227 138.145 35.2422 138.266 35.4259C138.391 35.6065 138.549 35.7575 138.743 35.8789C138.936 35.9973 139.138 36.0953 139.35 36.1732C139.561 36.2479 139.756 36.3086 139.933 36.3553L140.905 36.6169C141.154 36.6823 141.431 36.7726 141.736 36.8878C142.045 37.003 142.339 37.1602 142.619 37.3595C142.902 37.5556 143.136 37.8078 143.32 38.1161C143.503 38.4243 143.595 38.8026 143.595 39.251C143.595 39.7679 143.46 40.2349 143.189 40.6521C142.921 41.0694 142.529 41.401 142.012 41.6469C141.498 41.8929 140.874 42.0159 140.139 42.0159C139.454 42.0159 138.861 41.9054 138.36 41.6843C137.861 41.4632 137.469 41.155 137.183 40.7596C136.899 40.3641 136.739 39.9049 136.702 39.3818H137.897C137.928 39.743 138.05 40.0419 138.261 40.2785C138.476 40.512 138.747 40.6864 139.074 40.8016C139.404 40.9137 139.759 40.9697 140.139 40.9697C140.581 40.9697 140.978 40.8981 141.33 40.7549C141.682 40.6086 141.96 40.4062 142.166 40.1477C142.371 39.8862 142.474 39.5811 142.474 39.2323C142.474 38.9147 142.385 38.6563 142.208 38.457C142.031 38.2578 141.797 38.0958 141.507 37.9713C141.218 37.8468 140.905 37.7378 140.569 37.6444L139.392 37.3081C138.644 37.0933 138.053 36.7866 137.617 36.388C137.181 35.9895 136.963 35.4679 136.963 34.8234C136.963 34.2879 137.108 33.8208 137.397 33.4223C137.69 33.0206 138.082 32.7093 138.574 32.4882C139.069 32.264 139.622 32.1519 140.232 32.1519C140.849 32.1519 141.397 32.2624 141.876 32.4835C142.356 32.7015 142.736 33.0004 143.016 33.3802C143.299 33.7601 143.449 34.1913 143.464 34.674H142.343ZM153.57 37.0652C153.57 38.0741 153.388 38.9459 153.024 39.6807C152.659 40.4155 152.16 40.9822 151.524 41.3807C150.889 41.7793 150.164 41.9786 149.348 41.9786C148.532 41.9786 147.807 41.7793 147.172 41.3807C146.536 40.9822 146.037 40.4155 145.672 39.6807C145.308 38.9459 145.126 38.0741 145.126 37.0652C145.126 36.0564 145.308 35.1846 145.672 34.4498C146.037 33.715 146.536 33.1483 147.172 32.7497C147.807 32.3512 148.532 32.1519 149.348 32.1519C150.164 32.1519 150.889 32.3512 151.524 32.7497C152.16 33.1483 152.659 33.715 153.024 34.4498C153.388 35.1846 153.57 36.0564 153.57 37.0652ZM152.449 37.0652C152.449 36.237 152.311 35.538 152.033 34.9682C151.759 34.3984 151.387 33.9672 150.917 33.6745C150.45 33.3818 149.927 33.2355 149.348 33.2355C148.769 33.2355 148.244 33.3818 147.774 33.6745C147.307 33.9672 146.935 34.3984 146.658 34.9682C146.384 35.538 146.247 36.237 146.247 37.0652C146.247 37.8935 146.384 38.5925 146.658 39.1623C146.935 39.7321 147.307 40.1633 147.774 40.456C148.244 40.7487 148.769 40.895 149.348 40.895C149.927 40.895 150.45 40.7487 150.917 40.456C151.387 40.1633 151.759 39.7321 152.033 39.1623C152.311 38.5925 152.449 37.8935 152.449 37.0652ZM155.518 41.8478V32.2827H158.75C159.497 32.2827 160.11 32.4103 160.59 32.6657C161.069 32.9179 161.424 33.265 161.655 33.7072C161.885 34.1493 162 34.6522 162 35.2157C162 35.7793 161.885 36.279 161.655 36.7149C161.424 37.1509 161.071 37.4934 160.594 37.7424C160.118 37.9884 159.509 38.1114 158.768 38.1114H156.153V37.0652H158.731C159.242 37.0652 159.653 36.9905 159.964 36.8411C160.278 36.6916 160.506 36.4799 160.646 36.2059C160.789 35.9288 160.861 35.5987 160.861 35.2157C160.861 34.8328 160.789 34.498 160.646 34.2116C160.503 33.9251 160.274 33.7041 159.959 33.5484C159.645 33.3896 159.229 33.3102 158.712 33.3102H156.676V41.8478H155.518ZM160.02 37.551L162.374 41.8478H161.029L158.712 37.551H160.02ZM162.787 32.2827H164.114L166.766 36.7476H166.879L169.531 32.2827H170.858L167.402 37.9059V41.8478H166.243V37.9059L162.787 32.2827Z" fill="#1B1918"/>
<path fill-rule="evenodd" clip-rule="evenodd" d="M15.6005 0L17.0964 0.103954L18.1291 1.21882L18.972 1.42211L18.7505 3.73076L17.003 5.23945L9.74511 10.4374L8.90475 12.7784L9.58655 15.1122L13.0246 18.7469L13.9115 20.5115L15.4423 20.0308L17.4066 21.3334L17.6854 22.9296L18.5757 23.1402L22.5533 28.2952L23.6874 29.4687C23.654 30.5864 23.6649 31.3461 23.7347 31.7457L24.0257 32.3653L23.4096 33.7219L22.5333 36.9065C21.0915 38.6821 20.2581 40.0159 20.0185 40.9107L18.8814 41.2925L18.8098 41.9293L14.0591 47.1771C12.8293 48.9461 11.8526 49.9846 11.1348 50.3235L6.18123 52.6666C5.78562 53.4513 5.25723 54.0921 4.59763 54.5884L3.50569 53.1339L3.33009 52.1285L2.58969 51.4656L4.05545 49.9148C4.28461 49.2195 4.46894 48.7912 4.59836 48.6621L4.95725 48.1879C5.08457 48.0435 5.74595 47.7301 6.93605 47.2175C7.47065 46.4386 7.96075 46.0178 8.35962 45.9484L9.01017 45.8346C9.73164 44.9925 10.2327 44.3721 10.5109 43.9576L11.1167 43.8517L11.2119 43.3477L11.7868 43.0645L11.9439 41.6962L12.2988 41.6344L12.8482 40.2435L14.0144 39.5064L14.1805 38.3654L14.55 37.9505L14.9077 35.1153L14.0148 33.8394L11.3268 28.9152L6.64408 26.7015C5.7812 25.8619 5.02091 25.1721 4.36278 24.6321L3.77473 23.2722C3.57408 22.8195 3.14028 22.2555 2.45922 21.5821L1.98469 21.4825L1.08394 19.9029L0.978196 19.2967C0.597419 18.2509 0.269037 17.5924 0 17.2735L0.625402 14.2241L1.09993 14.3242L0.880343 13.0675L1.73407 12.1108L1.64358 11.5933C2.54718 10.6589 3.17774 9.90871 3.53589 9.34328L4.34889 9.20113L4.45506 9.8076L4.95725 8.05934L5.01912 8.41381C5.01807 8.23137 5.52521 7.82261 6.53686 7.15901C6.55064 6.71468 6.81169 6.37936 7.35576 6.17797C8.03609 4.84015 8.39056 4.07734 8.41855 3.88963L9.21566 3.56788L9.85275 3.63912L10.1335 3.23992L11.5671 2.9893L11.5211 2.72352L13.861 1.55268C14.122 1.47703 14.6642 1.09267 15.4849 0.385409L15.6005 0Z" fill="#0096FC"/>
</svg>
