<svg width="67" height="86" viewBox="0 0 67 86" fill="none" xmlns="http://www.w3.org/2000/svg">
<mask id="path-1-outside-1_43_1632" maskUnits="userSpaceOnUse" x="0" y="0" width="67" height="86" fill="black">
<rect fill="white" width="67" height="86"/>
<path d="M65.7375 43.546V8.93487C65.7375 4.55939 62.1801 1 57.8084 1H20.09V1.00383C19.7759 1.00383 19.4693 1.13027 19.2471 1.36973L1.30651 20.7337C1.1092 20.9464 1 21.2261 1.00192 21.5153H1V77.0651C1 81.4406 4.55747 85 8.92912 85H57.8046C62.1762 85 65.7337 81.4406 65.7337 77.0651V61.3831L65.7375 43.546ZM18.9406 5.08238V15.4368C18.9406 18.1552 16.7318 20.3659 14.0153 20.3659H4.78161L18.9406 5.08238ZM63.4368 77.0651C63.4368 80.1724 60.91 82.7011 57.8065 82.7011H8.92912C5.82375 82.7011 3.29885 80.1724 3.29885 77.0651V22.6647H14.0153C17.9981 22.6647 21.2395 19.4234 21.2395 15.4368V3.30077H57.8065C60.9119 3.30077 63.4368 5.8295 63.4368 8.93678V65.1571L63.4349 77.0651H63.4368ZM28.8908 24.7759H31.4195V37.5479C31.4195 38.182 31.9349 38.6973 32.569 38.6973H39.9176C40.5517 38.6973 41.067 38.182 41.067 37.5479V28.295H46.0306V37.5479C46.0306 38.182 46.546 38.6973 47.1801 38.6973H54.5287C55.1628 38.6973 55.6782 38.182 55.6782 37.5479V24.7759H58.2069C58.6667 24.7759 59.0843 24.5 59.2644 24.0766C59.4444 23.6533 59.3544 23.1628 59.0364 22.8295L54.2969 17.8946V11.5594C54.2969 10.9253 53.7816 10.41 53.1475 10.41H49.0441C48.5211 10.41 48.0632 10.7625 47.931 11.2682L44.3774 7.56897C44.1609 7.34291 43.8621 7.21648 43.5479 7.21648C43.2337 7.21648 42.9349 7.34483 42.7184 7.56897L28.0594 22.8295C27.7395 23.1609 27.6494 23.6533 27.8314 24.0766C28.0134 24.5 28.431 24.7759 28.8908 24.7759ZM43.5498 10.0249L48.2146 14.8812C48.5402 15.2184 49.0383 15.3257 49.4732 15.1513C49.908 14.9751 50.1935 14.5536 50.1935 14.0843V12.7069H51.9981V18.3563C51.9981 18.6533 52.113 18.9387 52.318 19.1533L55.5096 22.4751H54.5287C53.8946 22.4751 53.3793 22.9904 53.3793 23.6245V36.3966H48.3295V27.1437C48.3295 26.5096 47.8142 25.9943 47.1801 25.9943H39.9176C39.2835 25.9943 38.7682 26.5096 38.7682 27.1437V36.3966H33.7184V23.6245C33.7184 22.9904 33.2031 22.4751 32.569 22.4751H31.5881L43.5498 10.0249ZM10.9866 45.1188C10.9866 44.4847 11.5019 43.9693 12.136 43.9693H34.4559C35.09 43.9693 35.6054 44.4847 35.6054 45.1188C35.6054 45.7529 35.09 46.2682 34.4559 46.2682H12.136C11.5019 46.2682 10.9866 45.7548 10.9866 45.1188ZM10.9866 54.1667C10.9866 53.5326 11.5019 53.0172 12.136 53.0172H54.5287C55.1628 53.0172 55.6782 53.5326 55.6782 54.1667C55.6782 54.8008 55.1628 55.3161 54.5287 55.3161H12.136C11.5019 55.3161 10.9866 54.8008 10.9866 54.1667ZM52.1513 63.2126C52.1513 63.8467 51.636 64.3621 51.0019 64.3621H12.136C11.5019 64.3621 10.9866 63.8467 10.9866 63.2126C10.9866 62.5785 11.5019 62.0632 12.136 62.0632H51.0019C51.636 62.0632 52.1513 62.5766 52.1513 63.2126ZM49.3601 72.2586C49.3601 72.8927 48.8448 73.408 48.2107 73.408H12.136C11.5019 73.408 10.9866 72.8927 10.9866 72.2586C10.9866 71.6245 11.5019 71.1092 12.136 71.1092H48.2126C48.8467 71.1092 49.3601 71.6226 49.3601 72.2567V72.2586Z"/>
</mask>
<path d="M65.7375 43.546V8.93487C65.7375 4.55939 62.1801 1 57.8084 1H20.09V1.00383C19.7759 1.00383 19.4693 1.13027 19.2471 1.36973L1.30651 20.7337C1.1092 20.9464 1 21.2261 1.00192 21.5153H1V77.0651C1 81.4406 4.55747 85 8.92912 85H57.8046C62.1762 85 65.7337 81.4406 65.7337 77.0651V61.3831L65.7375 43.546ZM18.9406 5.08238V15.4368C18.9406 18.1552 16.7318 20.3659 14.0153 20.3659H4.78161L18.9406 5.08238ZM63.4368 77.0651C63.4368 80.1724 60.91 82.7011 57.8065 82.7011H8.92912C5.82375 82.7011 3.29885 80.1724 3.29885 77.0651V22.6647H14.0153C17.9981 22.6647 21.2395 19.4234 21.2395 15.4368V3.30077H57.8065C60.9119 3.30077 63.4368 5.8295 63.4368 8.93678V65.1571L63.4349 77.0651H63.4368ZM28.8908 24.7759H31.4195V37.5479C31.4195 38.182 31.9349 38.6973 32.569 38.6973H39.9176C40.5517 38.6973 41.067 38.182 41.067 37.5479V28.295H46.0306V37.5479C46.0306 38.182 46.546 38.6973 47.1801 38.6973H54.5287C55.1628 38.6973 55.6782 38.182 55.6782 37.5479V24.7759H58.2069C58.6667 24.7759 59.0843 24.5 59.2644 24.0766C59.4444 23.6533 59.3544 23.1628 59.0364 22.8295L54.2969 17.8946V11.5594C54.2969 10.9253 53.7816 10.41 53.1475 10.41H49.0441C48.5211 10.41 48.0632 10.7625 47.931 11.2682L44.3774 7.56897C44.1609 7.34291 43.8621 7.21648 43.5479 7.21648C43.2337 7.21648 42.9349 7.34483 42.7184 7.56897L28.0594 22.8295C27.7395 23.1609 27.6494 23.6533 27.8314 24.0766C28.0134 24.5 28.431 24.7759 28.8908 24.7759ZM43.5498 10.0249L48.2146 14.8812C48.5402 15.2184 49.0383 15.3257 49.4732 15.1513C49.908 14.9751 50.1935 14.5536 50.1935 14.0843V12.7069H51.9981V18.3563C51.9981 18.6533 52.113 18.9387 52.318 19.1533L55.5096 22.4751H54.5287C53.8946 22.4751 53.3793 22.9904 53.3793 23.6245V36.3966H48.3295V27.1437C48.3295 26.5096 47.8142 25.9943 47.1801 25.9943H39.9176C39.2835 25.9943 38.7682 26.5096 38.7682 27.1437V36.3966H33.7184V23.6245C33.7184 22.9904 33.2031 22.4751 32.569 22.4751H31.5881L43.5498 10.0249ZM10.9866 45.1188C10.9866 44.4847 11.5019 43.9693 12.136 43.9693H34.4559C35.09 43.9693 35.6054 44.4847 35.6054 45.1188C35.6054 45.7529 35.09 46.2682 34.4559 46.2682H12.136C11.5019 46.2682 10.9866 45.7548 10.9866 45.1188ZM10.9866 54.1667C10.9866 53.5326 11.5019 53.0172 12.136 53.0172H54.5287C55.1628 53.0172 55.6782 53.5326 55.6782 54.1667C55.6782 54.8008 55.1628 55.3161 54.5287 55.3161H12.136C11.5019 55.3161 10.9866 54.8008 10.9866 54.1667ZM52.1513 63.2126C52.1513 63.8467 51.636 64.3621 51.0019 64.3621H12.136C11.5019 64.3621 10.9866 63.8467 10.9866 63.2126C10.9866 62.5785 11.5019 62.0632 12.136 62.0632H51.0019C51.636 62.0632 52.1513 62.5766 52.1513 63.2126ZM49.3601 72.2586C49.3601 72.8927 48.8448 73.408 48.2107 73.408H12.136C11.5019 73.408 10.9866 72.8927 10.9866 72.2586C10.9866 71.6245 11.5019 71.1092 12.136 71.1092H48.2126C48.8467 71.1092 49.3601 71.6226 49.3601 72.2567V72.2586Z" fill="#00AEFF"/>
<path d="M65.7375 43.546V8.93487C65.7375 4.55939 62.1801 1 57.8084 1H20.09V1.00383C19.7759 1.00383 19.4693 1.13027 19.2471 1.36973L1.30651 20.7337C1.1092 20.9464 1 21.2261 1.00192 21.5153H1V77.0651C1 81.4406 4.55747 85 8.92912 85H57.8046C62.1762 85 65.7337 81.4406 65.7337 77.0651V61.3831L65.7375 43.546ZM18.9406 5.08238V15.4368C18.9406 18.1552 16.7318 20.3659 14.0153 20.3659H4.78161L18.9406 5.08238ZM63.4368 77.0651C63.4368 80.1724 60.91 82.7011 57.8065 82.7011H8.92912C5.82375 82.7011 3.29885 80.1724 3.29885 77.0651V22.6647H14.0153C17.9981 22.6647 21.2395 19.4234 21.2395 15.4368V3.30077H57.8065C60.9119 3.30077 63.4368 5.8295 63.4368 8.93678V65.1571L63.4349 77.0651H63.4368ZM28.8908 24.7759H31.4195V37.5479C31.4195 38.182 31.9349 38.6973 32.569 38.6973H39.9176C40.5517 38.6973 41.067 38.182 41.067 37.5479V28.295H46.0306V37.5479C46.0306 38.182 46.546 38.6973 47.1801 38.6973H54.5287C55.1628 38.6973 55.6782 38.182 55.6782 37.5479V24.7759H58.2069C58.6667 24.7759 59.0843 24.5 59.2644 24.0766C59.4444 23.6533 59.3544 23.1628 59.0364 22.8295L54.2969 17.8946V11.5594C54.2969 10.9253 53.7816 10.41 53.1475 10.41H49.0441C48.5211 10.41 48.0632 10.7625 47.931 11.2682L44.3774 7.56897C44.1609 7.34291 43.8621 7.21648 43.5479 7.21648C43.2337 7.21648 42.9349 7.34483 42.7184 7.56897L28.0594 22.8295C27.7395 23.1609 27.6494 23.6533 27.8314 24.0766C28.0134 24.5 28.431 24.7759 28.8908 24.7759ZM43.5498 10.0249L48.2146 14.8812C48.5402 15.2184 49.0383 15.3257 49.4732 15.1513C49.908 14.9751 50.1935 14.5536 50.1935 14.0843V12.7069H51.9981V18.3563C51.9981 18.6533 52.113 18.9387 52.318 19.1533L55.5096 22.4751H54.5287C53.8946 22.4751 53.3793 22.9904 53.3793 23.6245V36.3966H48.3295V27.1437C48.3295 26.5096 47.8142 25.9943 47.1801 25.9943H39.9176C39.2835 25.9943 38.7682 26.5096 38.7682 27.1437V36.3966H33.7184V23.6245C33.7184 22.9904 33.2031 22.4751 32.569 22.4751H31.5881L43.5498 10.0249ZM10.9866 45.1188C10.9866 44.4847 11.5019 43.9693 12.136 43.9693H34.4559C35.09 43.9693 35.6054 44.4847 35.6054 45.1188C35.6054 45.7529 35.09 46.2682 34.4559 46.2682H12.136C11.5019 46.2682 10.9866 45.7548 10.9866 45.1188ZM10.9866 54.1667C10.9866 53.5326 11.5019 53.0172 12.136 53.0172H54.5287C55.1628 53.0172 55.6782 53.5326 55.6782 54.1667C55.6782 54.8008 55.1628 55.3161 54.5287 55.3161H12.136C11.5019 55.3161 10.9866 54.8008 10.9866 54.1667ZM52.1513 63.2126C52.1513 63.8467 51.636 64.3621 51.0019 64.3621H12.136C11.5019 64.3621 10.9866 63.8467 10.9866 63.2126C10.9866 62.5785 11.5019 62.0632 12.136 62.0632H51.0019C51.636 62.0632 52.1513 62.5766 52.1513 63.2126ZM49.3601 72.2586C49.3601 72.8927 48.8448 73.408 48.2107 73.408H12.136C11.5019 73.408 10.9866 72.8927 10.9866 72.2586C10.9866 71.6245 11.5019 71.1092 12.136 71.1092H48.2126C48.8467 71.1092 49.3601 71.6226 49.3601 72.2567V72.2586Z" stroke="#00AEFF" mask="url(#path-1-outside-1_43_1632)"/>
</svg>
