<svg width="94" height="84" viewBox="0 0 94 84" fill="none" xmlns="http://www.w3.org/2000/svg">
<g clip-path="url(#clip0_43_1635)">
<path d="M75.8132 47.6064C74.2083 47.1333 72.5196 47.3098 71.0548 48.105L67.2807 50.1613C67.2389 50.0739 67.1934 49.9866 67.1479 49.901C65.5029 46.8749 61.7016 45.7522 58.6718 47.3972L51.9681 51.0438L38.0276 46.5565C33.2236 45.0079 28.5416 45.4465 24.1125 47.8594L12.5066 54.1736L11.2783 52.041C10.5268 50.7527 8.86724 50.3087 7.57891 51.0529L1.35743 54.6377C0.73146 54.998 0.276541 55.593 0.0927532 56.2899C-0.092854 56.9869 0.00358891 57.7147 0.363885 58.3353L14.3609 82.6425C14.7211 83.2685 15.3034 83.7179 16.004 83.9054C16.2388 83.9691 16.4771 84 16.7137 84C17.1814 84 17.6436 83.8781 18.0584 83.6379L24.2908 80.0495C25.5755 79.3016 26.0195 77.6457 25.2789 76.3555L24.1107 74.3266L24.6202 74.05C27.2005 72.6452 29.93 72.3886 32.7305 73.2912L38.7555 75.231C40.153 75.6804 41.5378 75.9061 42.9025 75.9061C45.0388 75.9061 47.1278 75.3565 49.1458 74.2574L77.0324 59.0813C80.0567 57.4309 81.1776 53.6277 79.5345 50.6016C78.7429 49.1459 77.42 48.0795 75.8132 47.6064ZM60.0639 49.9575C61.6816 49.0786 63.7105 49.6772 64.5876 51.2913C64.6349 51.3786 64.6768 51.4678 64.7168 51.5569L58.2206 55.0944C57.6619 53.948 56.763 52.9872 55.6475 52.3594L60.0639 49.9575ZM16.7865 81.0157L2.99332 57.0651L8.85996 53.6842L20.8262 74.4631C20.8262 74.4631 20.828 74.4667 20.828 74.4685L22.6531 77.6402L16.7865 81.0157ZM75.6422 56.5283L47.7574 71.7026C45.1753 73.1074 42.4476 73.3622 39.6526 72.4614L33.6276 70.5216C30.0374 69.3661 26.54 69.6937 23.2318 71.4952L22.6604 71.8063L13.9623 56.703L25.5064 50.4215C29.2058 48.4053 33.1181 48.0377 37.1341 49.3333L53.6241 54.6413C54.8469 55.0362 55.7458 56.1243 55.9132 57.4145C55.9187 57.4527 55.926 57.4891 55.9351 57.5255C55.9314 57.5746 55.9314 57.6256 55.9351 57.6765C55.9532 58.0787 55.9023 58.4717 55.7822 58.8429C55.2163 60.5935 53.3311 61.5579 51.5806 60.9938C46.9167 59.4926 42.2547 57.9913 37.5854 56.4901C36.8193 56.2444 35.9986 56.6648 35.753 57.4309C35.5073 58.197 35.9277 59.0176 36.6938 59.2633C41.3612 60.7645 46.0251 62.2658 50.6871 63.7652C51.3222 63.9708 51.9663 64.0672 52.6014 64.0672C55.2418 64.0672 57.702 62.3804 58.5554 59.7382C58.7301 59.2014 58.8265 58.6428 58.8484 58.075L67.0933 53.5841C67.117 53.5713 67.1406 53.5604 67.1625 53.5459L72.4504 50.6653C73.2293 50.2413 74.1318 50.1485 74.9907 50.4015C75.8496 50.6544 76.5556 51.2221 76.9778 51.9991C77.8549 53.615 77.2562 55.6476 75.6422 56.5283ZM92.6562 20.9445L88.4272 17.3707C88.1634 17.1487 87.8304 17.0267 87.4865 17.0267H71.8245C70.3433 14.0534 67.601 11.8789 64.4239 11.0709L64.6459 10.6342C65.1463 9.67159 64.9661 8.50154 64.1909 7.71362L61.6743 5.20246C60.9082 4.43274 59.7309 4.24713 58.7646 4.7439L56.4919 5.90486C55.1671 5.15151 53.7551 4.56739 52.2866 4.1616L51.4969 1.73779C51.1657 0.698757 50.2085 0 49.1131 0H45.5592C44.4747 0 43.5194 0.693298 43.1773 1.73051L42.3894 4.15979C40.93 4.56193 39.5179 5.14787 38.1786 5.90486L35.9058 4.74572C34.9396 4.24713 33.7604 4.43092 32.9944 5.20246L30.4814 7.71544C29.7135 8.48334 29.5261 9.65703 30.0174 10.6251L31.1801 12.9015C30.4323 14.219 29.8481 15.6329 29.4405 17.1086L27.0167 17.8984C25.9777 18.2259 25.2716 19.1922 25.2735 20.2821V23.836C25.2735 24.9187 25.9686 25.8758 27.0076 26.2179L29.4333 27.004C29.839 28.4743 30.4268 29.8882 31.1801 31.2129L30.0119 33.5003C29.5242 34.4775 29.7153 35.6457 30.4814 36.399L32.9853 38.9029C33.7477 39.6763 34.9159 39.8692 35.904 39.3742L38.1786 38.2132C39.5033 38.963 40.9172 39.5471 42.3894 39.9529L43.1791 42.3894C43.5194 43.423 44.4765 44.1181 45.5592 44.1181H49.1131C50.2085 44.1181 51.1657 43.4175 51.4932 42.3858L52.2866 39.951C53.7624 39.5434 55.1726 38.9611 56.4919 38.2114L58.7756 39.3778C59.7527 39.8655 60.921 39.6744 61.6743 38.9102L64.1927 36.3972C64.9643 35.6257 65.1481 34.4556 64.6513 33.4894L64.4257 33.0472C67.6028 32.2374 70.3433 30.0647 71.8245 27.0914H76.7522C77.198 27.0914 77.6183 26.8876 77.8949 26.5382L78.5191 25.7503L79.1432 26.5382C79.4198 26.8876 79.8402 27.0914 80.286 27.0914H82.3804C82.8263 27.0914 83.2484 26.8876 83.525 26.5364L84.1455 25.7503L84.766 26.5364C85.0426 26.8876 85.4648 27.0914 85.9106 27.0914H87.4883C87.8322 27.0914 88.167 26.9695 88.429 26.7456L92.658 23.1663C92.9855 22.8897 93.173 22.4821 93.173 22.0527C93.173 21.6251 92.9837 21.2193 92.6562 20.9445ZM59.8201 36.6429L57.6092 35.5147C56.8449 35.1253 55.946 35.1544 55.2126 35.5875C53.9953 36.2971 52.6869 36.8376 51.324 37.1942C50.4833 37.4144 49.8464 38.0149 49.5789 38.8429L48.8092 41.2066H45.854L45.0879 38.8465C44.8223 38.0295 44.169 37.4108 43.3392 37.1942C41.9781 36.8358 40.6716 36.2971 39.4542 35.5893C38.7191 35.1544 37.8111 35.1253 37.0504 35.5147L34.8413 36.641L32.7451 34.5448L33.8733 32.3339C34.2645 31.5623 34.239 30.6889 33.8005 29.9337C33.0908 28.7182 32.5485 27.4116 32.1882 26.0505C31.9753 25.2244 31.353 24.5638 30.5414 24.3L28.1813 23.5339V20.5787L30.5414 19.809C31.3548 19.5452 31.9553 18.9192 32.1882 18.0876L32.1937 18.0658C32.5504 16.7046 33.089 15.3963 33.7987 14.1808C34.239 13.4347 34.2681 12.5612 33.8733 11.7715L32.7451 9.56241L34.8377 7.46978L37.0522 8.5998C37.8165 8.98921 38.7154 8.9601 39.4469 8.52883C40.6661 7.81916 41.9745 7.27507 43.3374 6.91478C44.169 6.69824 44.8241 6.07955 45.0879 5.26251L45.8522 2.90785H48.811L49.5789 5.26251C49.8482 6.0941 50.4833 6.69642 51.3222 6.91478C52.6851 7.27326 53.9916 7.8137 55.2072 8.52519C55.946 8.9601 56.8431 8.98921 57.611 8.5998L59.8237 7.46978L61.9181 9.56059L61.3249 10.727C58.6391 10.8071 56.1843 11.8243 54.2791 13.4638C52.323 11.8716 49.9065 11.0072 47.3334 11.0072C41.2393 11.0072 36.2825 15.9622 36.2825 22.0527C36.2825 28.1431 41.2393 33.1036 47.3334 33.1036C49.861 33.1036 52.3212 32.2192 54.2755 30.6434C56.1807 32.2866 58.6373 33.3056 61.3249 33.3838L61.9163 34.5466L59.8201 36.6429ZM52.3303 28.4798C50.9091 29.5916 49.1749 30.1939 47.3352 30.1939C42.8479 30.1939 39.1976 26.5437 39.1976 22.0563C39.1976 17.569 42.8479 13.9242 47.3352 13.9242C49.1786 13.9242 50.9127 14.5247 52.3303 15.6365C51.0256 17.5235 50.3286 19.7635 50.3304 22.0563C50.3286 24.4401 51.0692 26.6528 52.3303 28.4798ZM86.9515 24.1799H86.613L85.6795 22.9953C85.2792 22.493 84.7333 22.2183 84.1419 22.2183C83.5505 22.2183 83.0046 22.4949 82.6006 23.0007L81.6708 24.1799H80.9884L80.0603 23.008C79.6691 22.5058 79.1068 22.2183 78.5173 22.2183C77.9277 22.2183 77.3654 22.5058 76.9796 22.9989L76.0443 24.1799H70.8746C70.2741 24.1799 69.7337 24.5493 69.5171 25.1097C68.267 28.3233 65.1117 30.4833 61.6634 30.4833C57.0196 30.4833 53.2419 26.7038 53.2419 22.0581C53.2419 17.4125 57.0196 13.6367 61.6634 13.6367C65.1117 13.6367 68.267 15.7966 69.5171 19.0102C69.7355 19.5706 70.2741 19.94 70.8746 19.94H86.9496L89.4553 22.0581L86.9515 24.1799ZM58.0586 18.3915C56.0369 18.3915 54.3938 20.0347 54.3938 22.0563C54.3938 24.078 56.0369 25.7266 58.0586 25.7266C60.0803 25.7266 61.7289 24.0798 61.7289 22.0563C61.7289 20.0328 60.0821 18.3915 58.0586 18.3915ZM58.0586 22.8115C57.6455 22.8115 57.3089 22.473 57.3089 22.0563C57.3089 21.6396 57.6455 21.3066 58.0586 21.3066C58.4717 21.3066 58.8138 21.6433 58.8138 22.0563C58.8138 22.4694 58.4753 22.8115 58.0586 22.8115Z" fill="#00AEFF"/>
</g>
<defs>
<clipPath id="clip0_43_1635">
<rect width="93.173" height="84" fill="white"/>
</clipPath>
</defs>
</svg>
